<?xml version="1.0" encoding="UTF-8" standalone="no"?>
<!DOCTYPE svg PUBLIC "-//W3C//DTD SVG 1.1//EN"
 "http://www.w3.org/Graphics/SVG/1.1/DTD/svg11.dtd">
<!-- Generated by graphviz version 2.42.3 (20191010.1750)
 -->
<!-- Title: %3 Pages: 1 -->
<svg width="307pt" height="527pt"
 viewBox="0.00 0.00 307.00 526.91" xmlns="http://www.w3.org/2000/svg" xmlns:xlink="http://www.w3.org/1999/xlink">
<g id="graph0" class="graph" transform="scale(1 1) rotate(0) translate(4 522.91)">
<title>%3</title>
<polygon fill="white" stroke="transparent" points="-4,4 -4,-522.91 303,-522.91 303,4 -4,4"/>
<g id="clust1" class="cluster">
<title>cluster2,778 x 96</title>
<path fill="none" stroke="black" d="M20,-8C20,-8 134,-8 134,-8 140,-8 146,-14 146,-20 146,-20 146,-287.95 146,-287.95 146,-293.95 140,-299.95 134,-299.95 134,-299.95 20,-299.95 20,-299.95 14,-299.95 8,-293.95 8,-287.95 8,-287.95 8,-20 8,-20 8,-14 14,-8 20,-8"/>
<text text-anchor="middle" x="108.5" y="-15.8" font-family="Times,serif" font-size="14.00">2,778 x 96</text>
</g>
<g id="clust2" class="cluster">
<title>cluster20 x 96</title>
<path fill="none" stroke="black" d="M21,-307.95C21,-307.95 127,-307.95 127,-307.95 133,-307.95 139,-313.95 139,-319.95 139,-319.95 139,-498.91 139,-498.91 139,-504.91 133,-510.91 127,-510.91 127,-510.91 21,-510.91 21,-510.91 15,-510.91 9,-504.91 9,-498.91 9,-498.91 9,-319.95 9,-319.95 9,-313.95 15,-307.95 21,-307.95"/>
<text text-anchor="middle" x="110" y="-315.75" font-family="Times,serif" font-size="14.00">20 x 96</text>
</g>
<g id="clust3" class="cluster">
<title>cluster2,778 x 20</title>
<path fill="none" stroke="black" d="M159,-307.95C159,-307.95 279,-307.95 279,-307.95 285,-307.95 291,-313.95 291,-319.95 291,-319.95 291,-498.91 291,-498.91 291,-504.91 285,-510.91 279,-510.91 279,-510.91 159,-510.91 159,-510.91 153,-510.91 147,-504.91 147,-498.91 147,-498.91 147,-319.95 147,-319.95 147,-313.95 153,-307.95 159,-307.95"/>
<text text-anchor="middle" x="253.5" y="-315.75" font-family="Times,serif" font-size="14.00">2,778 x 20</text>
</g>
<!-- corpus -->
<g id="node1" class="node">
<title>corpus</title>
<ellipse fill="lightgrey" stroke="black" cx="77" cy="-165.48" rx="60.62" ry="37.45"/>
<text text-anchor="middle" x="77" y="-176.78" font-family="Times,serif" font-size="14.00">corpus</text>
<text text-anchor="middle" x="77" y="-161.78" font-family="Times,serif" font-size="14.00">~</text>
<text text-anchor="middle" x="77" y="-146.78" font-family="Times,serif" font-size="14.00">Multinomial</text>
</g>
<!-- data -->
<g id="node3" class="node">
<title>data</title>
<path fill="lightgrey" stroke="black" d="M92,-92C92,-92 62,-92 62,-92 56,-92 50,-86 50,-80 50,-80 50,-51 50,-51 50,-45 56,-39 62,-39 62,-39 92,-39 92,-39 98,-39 104,-45 104,-51 104,-51 104,-80 104,-80 104,-86 98,-92 92,-92"/>
<text text-anchor="middle" x="77" y="-76.8" font-family="Times,serif" font-size="14.00">data</text>
<text text-anchor="middle" x="77" y="-61.8" font-family="Times,serif" font-size="14.00">~</text>
<text text-anchor="middle" x="77" y="-46.8" font-family="Times,serif" font-size="14.00">Data</text>
</g>
<!-- corpus&#45;&gt;data -->
<g id="edge1" class="edge">
<title>corpus&#45;&gt;data</title>
<path fill="none" stroke="black" d="M77,-127.99C77,-119.58 77,-110.63 77,-102.25"/>
<polygon fill="black" stroke="black" points="80.5,-102.01 77,-92.01 73.5,-102.01 80.5,-102.01"/>
</g>
<!-- B -->
<g id="node2" class="node">
<title>B</title>
<polygon fill="none" stroke="black" points="122.5,-291.95 31.5,-291.95 31.5,-238.95 122.5,-238.95 122.5,-291.95"/>
<text text-anchor="middle" x="77" y="-276.75" font-family="Times,serif" font-size="14.00">B</text>
<text text-anchor="middle" x="77" y="-261.75" font-family="Times,serif" font-size="14.00">~</text>
<text text-anchor="middle" x="77" y="-246.75" font-family="Times,serif" font-size="14.00">Deterministic</text>
</g>
<!-- B&#45;&gt;corpus -->
<g id="edge6" class="edge">
<title>B&#45;&gt;corpus</title>
<path fill="none" stroke="black" d="M77,-238.71C77,-230.89 77,-222.03 77,-213.27"/>
<polygon fill="black" stroke="black" points="80.5,-213.1 77,-203.1 73.5,-213.1 80.5,-213.1"/>
</g>
<!-- tau -->
<g id="node4" class="node">
<title>tau</title>
<polygon fill="none" stroke="black" points="120.5,-391.95 29.5,-391.95 29.5,-338.95 120.5,-338.95 120.5,-391.95"/>
<text text-anchor="middle" x="75" y="-376.75" font-family="Times,serif" font-size="14.00">tau</text>
<text text-anchor="middle" x="75" y="-361.75" font-family="Times,serif" font-size="14.00">~</text>
<text text-anchor="middle" x="75" y="-346.75" font-family="Times,serif" font-size="14.00">Deterministic</text>
</g>
<!-- tau&#45;&gt;B -->
<g id="edge5" class="edge">
<title>tau&#45;&gt;B</title>
<path fill="none" stroke="black" d="M75.53,-338.7C75.75,-327.56 76.02,-314.34 76.27,-302.26"/>
<polygon fill="black" stroke="black" points="79.77,-302.1 76.48,-292.03 72.77,-301.96 79.77,-302.1"/>
</g>
<!-- gamma_tau -->
<g id="node5" class="node">
<title>gamma_tau</title>
<ellipse fill="none" stroke="black" cx="74" cy="-465.43" rx="57.05" ry="37.45"/>
<text text-anchor="middle" x="74" y="-476.73" font-family="Times,serif" font-size="14.00">gamma_tau</text>
<text text-anchor="middle" x="74" y="-461.73" font-family="Times,serif" font-size="14.00">~</text>
<text text-anchor="middle" x="74" y="-446.73" font-family="Times,serif" font-size="14.00">Gamma</text>
</g>
<!-- gamma_tau&#45;&gt;tau -->
<g id="edge2" class="edge">
<title>gamma_tau&#45;&gt;tau</title>
<path fill="none" stroke="black" d="M74.37,-427.95C74.46,-419.53 74.55,-410.59 74.64,-402.2"/>
<polygon fill="black" stroke="black" points="78.14,-402 74.74,-391.96 71.14,-401.93 78.14,-402"/>
</g>
<!-- theta -->
<g id="node6" class="node">
<title>theta</title>
<polygon fill="none" stroke="black" points="255.5,-391.95 164.5,-391.95 164.5,-338.95 255.5,-338.95 255.5,-391.95"/>
<text text-anchor="middle" x="210" y="-376.75" font-family="Times,serif" font-size="14.00">theta</text>
<text text-anchor="middle" x="210" y="-361.75" font-family="Times,serif" font-size="14.00">~</text>
<text text-anchor="middle" x="210" y="-346.75" font-family="Times,serif" font-size="14.00">Deterministic</text>
</g>
<!-- theta&#45;&gt;B -->
<g id="edge4" class="edge">
<title>theta&#45;&gt;B</title>
<path fill="none" stroke="black" d="M181.36,-338.79C169.75,-328.79 156.02,-317.47 143,-307.95 138.31,-304.53 133.34,-301.08 128.31,-297.72"/>
<polygon fill="black" stroke="black" points="130.11,-294.72 119.83,-292.17 126.27,-300.58 130.11,-294.72"/>
</g>
<!-- gamma_theta -->
<g id="node7" class="node">
<title>gamma_theta</title>
<ellipse fill="none" stroke="black" cx="219" cy="-465.43" rx="64.19" ry="37.45"/>
<text text-anchor="middle" x="219" y="-476.73" font-family="Times,serif" font-size="14.00">gamma_theta</text>
<text text-anchor="middle" x="219" y="-461.73" font-family="Times,serif" font-size="14.00">~</text>
<text text-anchor="middle" x="219" y="-446.73" font-family="Times,serif" font-size="14.00">Gamma</text>
</g>
<!-- gamma_theta&#45;&gt;theta -->
<g id="edge3" class="edge">
<title>gamma_theta&#45;&gt;theta</title>
<path fill="none" stroke="black" d="M215.65,-427.95C214.87,-419.44 214.04,-410.39 213.26,-401.92"/>
<polygon fill="black" stroke="black" points="216.74,-401.6 212.34,-391.96 209.77,-402.24 216.74,-401.6"/>
</g>
</g>
</svg>
