<?xml version="1.0" encoding="UTF-8" standalone="no"?>
<!DOCTYPE svg PUBLIC "-//W3C//DTD SVG 1.1//EN"
 "http://www.w3.org/Graphics/SVG/1.1/DTD/svg11.dtd">
<!-- Generated by graphviz version 2.30.1 (20201013.1554)
 -->
<!-- Title: %3 Pages: 1 -->
<svg width="307pt" height="532pt"
 viewBox="0.00 0.00 307.00 532.00" xmlns="http://www.w3.org/2000/svg" xmlns:xlink="http://www.w3.org/1999/xlink">
<g id="graph0" class="graph" transform="scale(1 1) rotate(0) translate(4 528)">
<title>%3</title>
<polygon fill="white" stroke="white" points="-4,5 -4,-528 304,-528 304,5 -4,5"/>
<g id="clust1" class="cluster"><title>cluster2,778 x 96</title>
<path fill="none" stroke="black" d="M20,-8C20,-8 134,-8 134,-8 140,-8 146,-14 146,-20 146,-20 146,-291 146,-291 146,-297 140,-303 134,-303 134,-303 20,-303 20,-303 14,-303 8,-297 8,-291 8,-291 8,-20 8,-20 8,-14 14,-8 20,-8"/>
<text text-anchor="middle" x="108.5" y="-15.8" font-family="Times,serif" font-size="14.00">2,778 x 96</text>
</g>
<g id="clust2" class="cluster"><title>cluster20 x 96</title>
<path fill="none" stroke="black" d="M21,-311C21,-311 127,-311 127,-311 133,-311 139,-317 139,-323 139,-323 139,-504 139,-504 139,-510 133,-516 127,-516 127,-516 21,-516 21,-516 15,-516 9,-510 9,-504 9,-504 9,-323 9,-323 9,-317 15,-311 21,-311"/>
<text text-anchor="middle" x="110" y="-318.8" font-family="Times,serif" font-size="14.00">20 x 96</text>
</g>
<g id="clust3" class="cluster"><title>cluster2,778 x 20</title>
<path fill="none" stroke="black" d="M159,-311C159,-311 279,-311 279,-311 285,-311 291,-317 291,-323 291,-323 291,-504 291,-504 291,-510 285,-516 279,-516 279,-516 159,-516 159,-516 153,-516 147,-510 147,-504 147,-504 147,-323 147,-323 147,-317 153,-311 159,-311"/>
<text text-anchor="middle" x="253.5" y="-318.8" font-family="Times,serif" font-size="14.00">2,778 x 20</text>
</g>
<!-- B -->
<g id="node1" class="node"><title>B</title>
<polygon fill="none" stroke="black" points="122.25,-294.5 31.75,-294.5 31.75,-241.5 122.25,-241.5 122.25,-294.5"/>
<text text-anchor="middle" x="77" y="-279.3" font-family="Times,serif" font-size="14.00">B</text>
<text text-anchor="middle" x="77" y="-264.3" font-family="Times,serif" font-size="14.00">~</text>
<text text-anchor="middle" x="77" y="-249.3" font-family="Times,serif" font-size="14.00">Deterministic</text>
</g>
<!-- corpus -->
<g id="node3" class="node"><title>corpus</title>
<ellipse fill="lightgrey" stroke="black" cx="77" cy="-167" rx="60.2186" ry="37.4533"/>
<text text-anchor="middle" x="77" y="-178.3" font-family="Times,serif" font-size="14.00">corpus</text>
<text text-anchor="middle" x="77" y="-163.3" font-family="Times,serif" font-size="14.00">~</text>
<text text-anchor="middle" x="77" y="-148.3" font-family="Times,serif" font-size="14.00">Multinomial</text>
</g>
<!-- B&#45;&gt;corpus -->
<g id="edge6" class="edge"><title>B&#45;&gt;corpus</title>
<path fill="none" stroke="black" d="M77,-241.247C77,-233.172 77,-223.991 77,-214.926"/>
<polygon fill="black" stroke="black" points="80.5001,-214.806 77,-204.806 73.5001,-214.806 80.5001,-214.806"/>
</g>
<!-- data -->
<g id="node2" class="node"><title>data</title>
<path fill="lightgrey" stroke="black" d="M92,-92.5C92,-92.5 62,-92.5 62,-92.5 56,-92.5 50,-86.5 50,-80.5 50,-80.5 50,-51.5 50,-51.5 50,-45.5 56,-39.5 62,-39.5 62,-39.5 92,-39.5 92,-39.5 98,-39.5 104,-45.5 104,-51.5 104,-51.5 104,-80.5 104,-80.5 104,-86.5 98,-92.5 92,-92.5"/>
<text text-anchor="middle" x="77" y="-77.3" font-family="Times,serif" font-size="14.00">data</text>
<text text-anchor="middle" x="77" y="-62.3" font-family="Times,serif" font-size="14.00">~</text>
<text text-anchor="middle" x="77" y="-47.3" font-family="Times,serif" font-size="14.00">Data</text>
</g>
<!-- corpus&#45;&gt;data -->
<g id="edge1" class="edge"><title>corpus&#45;&gt;data</title>
<path fill="none" stroke="black" d="M77,-129.417C77,-120.724 77,-111.459 77,-102.801"/>
<polygon fill="black" stroke="black" points="80.5001,-102.621 77,-92.6207 73.5001,-102.621 80.5001,-102.621"/>
</g>
<!-- gamma_tau -->
<g id="node4" class="node"><title>gamma_tau</title>
<ellipse fill="none" stroke="black" cx="74" cy="-470" rx="56.9149" ry="37.4533"/>
<text text-anchor="middle" x="74" y="-481.3" font-family="Times,serif" font-size="14.00">gamma_tau</text>
<text text-anchor="middle" x="74" y="-466.3" font-family="Times,serif" font-size="14.00">~</text>
<text text-anchor="middle" x="74" y="-451.3" font-family="Times,serif" font-size="14.00">Gamma</text>
</g>
<!-- tau -->
<g id="node5" class="node"><title>tau</title>
<polygon fill="none" stroke="black" points="120.25,-395.5 29.75,-395.5 29.75,-342.5 120.25,-342.5 120.25,-395.5"/>
<text text-anchor="middle" x="75" y="-380.3" font-family="Times,serif" font-size="14.00">tau</text>
<text text-anchor="middle" x="75" y="-365.3" font-family="Times,serif" font-size="14.00">~</text>
<text text-anchor="middle" x="75" y="-350.3" font-family="Times,serif" font-size="14.00">Deterministic</text>
</g>
<!-- gamma_tau&#45;&gt;tau -->
<g id="edge2" class="edge"><title>gamma_tau&#45;&gt;tau</title>
<path fill="none" stroke="black" d="M74.3695,-432.417C74.4573,-423.724 74.5509,-414.459 74.6384,-405.801"/>
<polygon fill="black" stroke="black" points="78.1399,-405.656 74.7412,-395.621 71.1403,-405.585 78.1399,-405.656"/>
</g>
<!-- tau&#45;&gt;B -->
<g id="edge4" class="edge"><title>tau&#45;&gt;B</title>
<path fill="none" stroke="black" d="M75.5203,-342.247C75.7517,-330.789 76.0282,-317.106 76.2791,-304.684"/>
<polygon fill="black" stroke="black" points="79.7796,-304.692 76.4823,-294.624 72.781,-304.551 79.7796,-304.692"/>
</g>
<!-- theta -->
<g id="node6" class="node"><title>theta</title>
<polygon fill="none" stroke="black" points="255.25,-395.5 164.75,-395.5 164.75,-342.5 255.25,-342.5 255.25,-395.5"/>
<text text-anchor="middle" x="210" y="-380.3" font-family="Times,serif" font-size="14.00">theta</text>
<text text-anchor="middle" x="210" y="-365.3" font-family="Times,serif" font-size="14.00">~</text>
<text text-anchor="middle" x="210" y="-350.3" font-family="Times,serif" font-size="14.00">Deterministic</text>
</g>
<!-- theta&#45;&gt;B -->
<g id="edge5" class="edge"><title>theta&#45;&gt;B</title>
<path fill="none" stroke="black" d="M181.691,-342.411C170.009,-332.254 156.148,-320.704 143,-311 138.052,-307.348 132.789,-303.674 127.478,-300.1"/>
<polygon fill="black" stroke="black" points="129.403,-297.176 119.131,-294.583 125.544,-303.016 129.403,-297.176"/>
</g>
<!-- gamma_theta -->
<g id="node7" class="node"><title>gamma_theta</title>
<ellipse fill="none" stroke="black" cx="219" cy="-470" rx="64.0209" ry="37.4533"/>
<text text-anchor="middle" x="219" y="-481.3" font-family="Times,serif" font-size="14.00">gamma_theta</text>
<text text-anchor="middle" x="219" y="-466.3" font-family="Times,serif" font-size="14.00">~</text>
<text text-anchor="middle" x="219" y="-451.3" font-family="Times,serif" font-size="14.00">Gamma</text>
</g>
<!-- gamma_theta&#45;&gt;theta -->
<g id="edge3" class="edge"><title>gamma_theta&#45;&gt;theta</title>
<path fill="none" stroke="black" d="M215.674,-432.417C214.884,-423.724 214.042,-414.459 213.255,-405.801"/>
<polygon fill="black" stroke="black" points="216.72,-405.263 212.329,-395.621 209.749,-405.897 216.72,-405.263"/>
</g>
</g>
</svg>
