<?xml version="1.0" encoding="UTF-8" standalone="no"?>
<!DOCTYPE svg PUBLIC "-//W3C//DTD SVG 1.1//EN"
 "http://www.w3.org/Graphics/SVG/1.1/DTD/svg11.dtd">
<!-- Generated by graphviz version 2.30.1 (20201013.1554)
 -->
<!-- Title: %3 Pages: 1 -->
<svg width="730pt" height="778pt"
 viewBox="0.00 0.00 730.00 778.00" xmlns="http://www.w3.org/2000/svg" xmlns:xlink="http://www.w3.org/1999/xlink">
<g id="graph0" class="graph" transform="scale(1 1) rotate(0) translate(4 774)">
<title>%3</title>
<polygon fill="white" stroke="white" points="-4,5 -4,-774 727,-774 727,5 -4,5"/>
<g id="clust1" class="cluster"><title>cluster2,778 x 96</title>
<path fill="none" stroke="black" d="M236,-8C236,-8 350,-8 350,-8 356,-8 362,-14 362,-20 362,-20 362,-291 362,-291 362,-297 356,-303 350,-303 350,-303 236,-303 236,-303 230,-303 224,-297 224,-291 224,-291 224,-20 224,-20 224,-14 230,-8 236,-8"/>
<text text-anchor="middle" x="324.5" y="-15.8" font-family="Times,serif" font-size="14.00">2,778 x 96</text>
</g>
<g id="clust2" class="cluster"><title>cluster18 x 32</title>
<path fill="none" stroke="black" d="M20,-311C20,-311 128,-311 128,-311 134,-311 140,-317 140,-323 140,-323 140,-504 140,-504 140,-510 134,-516 128,-516 128,-516 20,-516 20,-516 14,-516 8,-510 8,-504 8,-504 8,-323 8,-323 8,-317 14,-311 20,-311"/>
<text text-anchor="middle" x="111" y="-318.8" font-family="Times,serif" font-size="14.00">18 x 32</text>
</g>
<g id="clust3" class="cluster"><title>cluster2,778 x 18</title>
<path fill="none" stroke="black" d="M160,-311C160,-311 280,-311 280,-311 286,-311 292,-317 292,-323 292,-323 292,-504 292,-504 292,-510 286,-516 280,-516 280,-516 160,-516 160,-516 154,-516 148,-510 148,-504 148,-504 148,-323 148,-323 148,-317 154,-311 160,-311"/>
<text text-anchor="middle" x="254.5" y="-318.8" font-family="Times,serif" font-size="14.00">2,778 x 18</text>
</g>
<g id="clust4" class="cluster"><title>cluster37 x 6</title>
<path fill="none" stroke="black" d="M269,-647C269,-647 451,-647 451,-647 457,-647 463,-653 463,-659 463,-659 463,-750 463,-750 463,-756 457,-762 451,-762 451,-762 269,-762 269,-762 263,-762 257,-756 257,-750 257,-750 257,-659 257,-659 257,-653 263,-647 269,-647"/>
<text text-anchor="middle" x="437.5" y="-654.8" font-family="Times,serif" font-size="14.00">37 x 6</text>
</g>
<g id="clust5" class="cluster"><title>cluster2,778 x 6</title>
<path fill="none" stroke="black" d="M321,-524C321,-524 399,-524 399,-524 405,-524 411,-530 411,-536 411,-536 411,-627 411,-627 411,-633 405,-639 399,-639 399,-639 321,-639 321,-639 315,-639 309,-633 309,-627 309,-627 309,-536 309,-536 309,-530 315,-524 321,-524"/>
<text text-anchor="middle" x="377" y="-531.8" font-family="Times,serif" font-size="14.00">2,778 x 6</text>
</g>
<g id="clust6" class="cluster"><title>cluster18 x 2,778 x 6</title>
<path fill="none" stroke="black" d="M312,-311C312,-311 408,-311 408,-311 414,-311 420,-317 420,-323 420,-323 420,-504 420,-504 420,-510 414,-516 408,-516 408,-516 312,-516 312,-516 306,-516 300,-510 300,-504 300,-504 300,-323 300,-323 300,-317 306,-311 312,-311"/>
<text text-anchor="middle" x="372" y="-318.8" font-family="Times,serif" font-size="14.00">18 x 2,778 x 6</text>
</g>
<g id="clust7" class="cluster"><title>cluster6 x 3</title>
<path fill="none" stroke="black" d="M440,-412C440,-412 702,-412 702,-412 708,-412 714,-418 714,-424 714,-424 714,-627 714,-627 714,-633 708,-639 702,-639 702,-639 440,-639 440,-639 434,-639 428,-633 428,-627 428,-627 428,-424 428,-424 428,-418 434,-412 440,-412"/>
<text text-anchor="middle" x="692" y="-419.8" font-family="Times,serif" font-size="14.00">6 x 3</text>
</g>
<g id="clust8" class="cluster"><title>cluster6 x 2 x 3</title>
<path fill="none" stroke="black" d="M457,-311C457,-311 541,-311 541,-311 547,-311 553,-317 553,-323 553,-323 553,-392 553,-392 553,-398 547,-404 541,-404 541,-404 457,-404 457,-404 451,-404 445,-398 445,-392 445,-392 445,-323 445,-323 445,-317 451,-311 457,-311"/>
<text text-anchor="middle" x="520.5" y="-318.8" font-family="Times,serif" font-size="14.00">6 x 2 x 3</text>
</g>
<!-- B -->
<g id="node1" class="node"><title>B</title>
<polygon fill="none" stroke="black" points="338.25,-294.5 247.75,-294.5 247.75,-241.5 338.25,-241.5 338.25,-294.5"/>
<text text-anchor="middle" x="293" y="-279.3" font-family="Times,serif" font-size="14.00">B</text>
<text text-anchor="middle" x="293" y="-264.3" font-family="Times,serif" font-size="14.00">~</text>
<text text-anchor="middle" x="293" y="-249.3" font-family="Times,serif" font-size="14.00">Deterministic</text>
</g>
<!-- corpus -->
<g id="node3" class="node"><title>corpus</title>
<ellipse fill="lightgrey" stroke="black" cx="293" cy="-167" rx="60.2186" ry="37.4533"/>
<text text-anchor="middle" x="293" y="-178.3" font-family="Times,serif" font-size="14.00">corpus</text>
<text text-anchor="middle" x="293" y="-163.3" font-family="Times,serif" font-size="14.00">~</text>
<text text-anchor="middle" x="293" y="-148.3" font-family="Times,serif" font-size="14.00">Multinomial</text>
</g>
<!-- B&#45;&gt;corpus -->
<g id="edge16" class="edge"><title>B&#45;&gt;corpus</title>
<path fill="none" stroke="black" d="M293,-241.247C293,-233.172 293,-223.991 293,-214.926"/>
<polygon fill="black" stroke="black" points="296.5,-214.806 293,-204.806 289.5,-214.806 296.5,-214.806"/>
</g>
<!-- data -->
<g id="node2" class="node"><title>data</title>
<path fill="lightgrey" stroke="black" d="M308,-92.5C308,-92.5 278,-92.5 278,-92.5 272,-92.5 266,-86.5 266,-80.5 266,-80.5 266,-51.5 266,-51.5 266,-45.5 272,-39.5 278,-39.5 278,-39.5 308,-39.5 308,-39.5 314,-39.5 320,-45.5 320,-51.5 320,-51.5 320,-80.5 320,-80.5 320,-86.5 314,-92.5 308,-92.5"/>
<text text-anchor="middle" x="293" y="-77.3" font-family="Times,serif" font-size="14.00">data</text>
<text text-anchor="middle" x="293" y="-62.3" font-family="Times,serif" font-size="14.00">~</text>
<text text-anchor="middle" x="293" y="-47.3" font-family="Times,serif" font-size="14.00">Data</text>
</g>
<!-- corpus&#45;&gt;data -->
<g id="edge1" class="edge"><title>corpus&#45;&gt;data</title>
<path fill="none" stroke="black" d="M293,-129.417C293,-120.724 293,-111.459 293,-102.801"/>
<polygon fill="black" stroke="black" points="296.5,-102.621 293,-92.6207 289.5,-102.621 296.5,-102.621"/>
</g>
<!-- phi -->
<g id="node4" class="node"><title>phi</title>
<polygon fill="none" stroke="black" points="125.25,-395.5 34.75,-395.5 34.75,-342.5 125.25,-342.5 125.25,-395.5"/>
<text text-anchor="middle" x="80" y="-380.3" font-family="Times,serif" font-size="14.00">phi</text>
<text text-anchor="middle" x="80" y="-365.3" font-family="Times,serif" font-size="14.00">~</text>
<text text-anchor="middle" x="80" y="-350.3" font-family="Times,serif" font-size="14.00">Deterministic</text>
</g>
<!-- phi&#45;&gt;B -->
<g id="edge14" class="edge"><title>phi&#45;&gt;B</title>
<path fill="none" stroke="black" d="M103.498,-342.365C114.806,-331.344 129.124,-319.15 144,-311 172.992,-295.117 208.52,-284.801 237.612,-278.369"/>
<polygon fill="black" stroke="black" points="238.553,-281.748 247.612,-276.253 237.104,-274.899 238.553,-281.748"/>
</g>
<!-- gamma_phi -->
<g id="node5" class="node"><title>gamma_phi</title>
<ellipse fill="none" stroke="black" cx="74" cy="-470" rx="57.4743" ry="37.4533"/>
<text text-anchor="middle" x="74" y="-481.3" font-family="Times,serif" font-size="14.00">gamma_phi</text>
<text text-anchor="middle" x="74" y="-466.3" font-family="Times,serif" font-size="14.00">~</text>
<text text-anchor="middle" x="74" y="-451.3" font-family="Times,serif" font-size="14.00">Gamma</text>
</g>
<!-- gamma_phi&#45;&gt;phi -->
<g id="edge2" class="edge"><title>gamma_phi&#45;&gt;phi</title>
<path fill="none" stroke="black" d="M76.2171,-432.417C76.744,-423.724 77.3055,-414.459 77.8302,-405.801"/>
<polygon fill="black" stroke="black" points="81.3358,-405.814 78.4472,-395.621 74.3486,-405.391 81.3358,-405.814"/>
</g>
<!-- theta -->
<g id="node6" class="node"><title>theta</title>
<polygon fill="none" stroke="black" points="274.25,-395.5 183.75,-395.5 183.75,-342.5 274.25,-342.5 274.25,-395.5"/>
<text text-anchor="middle" x="229" y="-380.3" font-family="Times,serif" font-size="14.00">theta</text>
<text text-anchor="middle" x="229" y="-365.3" font-family="Times,serif" font-size="14.00">~</text>
<text text-anchor="middle" x="229" y="-350.3" font-family="Times,serif" font-size="14.00">Deterministic</text>
</g>
<!-- theta&#45;&gt;B -->
<g id="edge15" class="edge"><title>theta&#45;&gt;B</title>
<path fill="none" stroke="black" d="M245.648,-342.247C253.352,-330.331 262.611,-316.008 270.891,-303.2"/>
<polygon fill="black" stroke="black" points="273.945,-304.922 276.435,-294.624 268.067,-301.122 273.945,-304.922"/>
</g>
<!-- gamma_theta -->
<g id="node7" class="node"><title>gamma_theta</title>
<ellipse fill="none" stroke="black" cx="220" cy="-470" rx="64.0209" ry="37.4533"/>
<text text-anchor="middle" x="220" y="-481.3" font-family="Times,serif" font-size="14.00">gamma_theta</text>
<text text-anchor="middle" x="220" y="-466.3" font-family="Times,serif" font-size="14.00">~</text>
<text text-anchor="middle" x="220" y="-451.3" font-family="Times,serif" font-size="14.00">Gamma</text>
</g>
<!-- gamma_theta&#45;&gt;theta -->
<g id="edge3" class="edge"><title>gamma_theta&#45;&gt;theta</title>
<path fill="none" stroke="black" d="M223.326,-432.417C224.116,-423.724 224.958,-414.459 225.745,-405.801"/>
<polygon fill="black" stroke="black" points="229.251,-405.897 226.671,-395.621 222.28,-405.263 229.251,-405.897"/>
</g>
<!-- b_t -->
<g id="node8" class="node"><title>b_t</title>
<ellipse fill="none" stroke="black" cx="412" cy="-716" rx="43.2005" ry="37.4533"/>
<text text-anchor="middle" x="412" y="-727.3" font-family="Times,serif" font-size="14.00">b_t</text>
<text text-anchor="middle" x="412" y="-712.3" font-family="Times,serif" font-size="14.00">~</text>
<text text-anchor="middle" x="412" y="-697.3" font-family="Times,serif" font-size="14.00">Gamma</text>
</g>
<!-- gamma -->
<g id="node10" class="node"><title>gamma</title>
<ellipse fill="none" stroke="black" cx="360" cy="-593" rx="43.2005" ry="37.4533"/>
<text text-anchor="middle" x="360" y="-604.3" font-family="Times,serif" font-size="14.00">gamma</text>
<text text-anchor="middle" x="360" y="-589.3" font-family="Times,serif" font-size="14.00">~</text>
<text text-anchor="middle" x="360" y="-574.3" font-family="Times,serif" font-size="14.00">Gamma</text>
</g>
<!-- b_t&#45;&gt;gamma -->
<g id="edge4" class="edge"><title>b_t&#45;&gt;gamma</title>
<path fill="none" stroke="black" d="M397.238,-680.65C391.529,-667.366 384.925,-652 378.878,-637.929"/>
<polygon fill="black" stroke="black" points="381.963,-636.242 374.799,-628.436 375.532,-639.005 381.963,-636.242"/>
</g>
<!-- a_t -->
<g id="node9" class="node"><title>a_t</title>
<ellipse fill="none" stroke="black" cx="308" cy="-716" rx="43.2005" ry="37.4533"/>
<text text-anchor="middle" x="308" y="-727.3" font-family="Times,serif" font-size="14.00">a_t</text>
<text text-anchor="middle" x="308" y="-712.3" font-family="Times,serif" font-size="14.00">~</text>
<text text-anchor="middle" x="308" y="-697.3" font-family="Times,serif" font-size="14.00">Gamma</text>
</g>
<!-- a_t&#45;&gt;gamma -->
<g id="edge5" class="edge"><title>a_t&#45;&gt;gamma</title>
<path fill="none" stroke="black" d="M322.762,-680.65C328.471,-667.366 335.075,-652 341.122,-637.929"/>
<polygon fill="black" stroke="black" points="344.468,-639.005 345.201,-628.436 338.037,-636.242 344.468,-639.005"/>
</g>
<!-- gamma_A -->
<g id="node11" class="node"><title>gamma_A</title>
<ellipse fill="none" stroke="black" cx="360" cy="-470" rx="51.99" ry="37.4533"/>
<text text-anchor="middle" x="360" y="-481.3" font-family="Times,serif" font-size="14.00">gamma_A</text>
<text text-anchor="middle" x="360" y="-466.3" font-family="Times,serif" font-size="14.00">~</text>
<text text-anchor="middle" x="360" y="-451.3" font-family="Times,serif" font-size="14.00">Gamma</text>
</g>
<!-- gamma&#45;&gt;gamma_A -->
<g id="edge6" class="edge"><title>gamma&#45;&gt;gamma_A</title>
<path fill="none" stroke="black" d="M360,-555.368C360,-543.521 360,-530.221 360,-517.744"/>
<polygon fill="black" stroke="black" points="363.5,-517.508 360,-507.508 356.5,-517.508 363.5,-517.508"/>
</g>
<!-- A -->
<g id="node12" class="node"><title>A</title>
<polygon fill="none" stroke="black" points="402.25,-395.5 311.75,-395.5 311.75,-342.5 402.25,-342.5 402.25,-395.5"/>
<text text-anchor="middle" x="357" y="-380.3" font-family="Times,serif" font-size="14.00">A</text>
<text text-anchor="middle" x="357" y="-365.3" font-family="Times,serif" font-size="14.00">~</text>
<text text-anchor="middle" x="357" y="-350.3" font-family="Times,serif" font-size="14.00">Deterministic</text>
</g>
<!-- gamma_A&#45;&gt;A -->
<g id="edge7" class="edge"><title>gamma_A&#45;&gt;A</title>
<path fill="none" stroke="black" d="M358.891,-432.417C358.628,-423.724 358.347,-414.459 358.085,-405.801"/>
<polygon fill="black" stroke="black" points="361.578,-405.51 357.776,-395.621 354.581,-405.722 361.578,-405.51"/>
</g>
<!-- A&#45;&gt;B -->
<g id="edge13" class="edge"><title>A&#45;&gt;B</title>
<path fill="none" stroke="black" d="M340.352,-342.247C332.648,-330.331 323.389,-316.008 315.109,-303.2"/>
<polygon fill="black" stroke="black" points="317.933,-301.122 309.565,-294.624 312.055,-304.922 317.933,-301.122"/>
</g>
<!-- gamma_etaC -->
<g id="node13" class="node"><title>gamma_etaC</title>
<ellipse fill="none" stroke="black" cx="643" cy="-593" rx="62.3993" ry="37.4533"/>
<text text-anchor="middle" x="643" y="-604.3" font-family="Times,serif" font-size="14.00">gamma_etaC</text>
<text text-anchor="middle" x="643" y="-589.3" font-family="Times,serif" font-size="14.00">~</text>
<text text-anchor="middle" x="643" y="-574.3" font-family="Times,serif" font-size="14.00">Gamma</text>
</g>
<!-- etaC -->
<g id="node14" class="node"><title>etaC</title>
<polygon fill="none" stroke="black" points="670.25,-496.5 579.75,-496.5 579.75,-443.5 670.25,-443.5 670.25,-496.5"/>
<text text-anchor="middle" x="625" y="-481.3" font-family="Times,serif" font-size="14.00">etaC</text>
<text text-anchor="middle" x="625" y="-466.3" font-family="Times,serif" font-size="14.00">~</text>
<text text-anchor="middle" x="625" y="-451.3" font-family="Times,serif" font-size="14.00">Deterministic</text>
</g>
<!-- gamma_etaC&#45;&gt;etaC -->
<g id="edge8" class="edge"><title>gamma_etaC&#45;&gt;etaC</title>
<path fill="none" stroke="black" d="M637.551,-555.368C635.264,-539.995 632.613,-522.175 630.338,-506.884"/>
<polygon fill="black" stroke="black" points="633.766,-506.139 628.832,-496.763 626.842,-507.169 633.766,-506.139"/>
</g>
<!-- eta -->
<g id="node17" class="node"><title>eta</title>
<polygon fill="none" stroke="black" points="544.25,-395.5 453.75,-395.5 453.75,-342.5 544.25,-342.5 544.25,-395.5"/>
<text text-anchor="middle" x="499" y="-380.3" font-family="Times,serif" font-size="14.00">eta</text>
<text text-anchor="middle" x="499" y="-365.3" font-family="Times,serif" font-size="14.00">~</text>
<text text-anchor="middle" x="499" y="-350.3" font-family="Times,serif" font-size="14.00">Deterministic</text>
</g>
<!-- etaC&#45;&gt;eta -->
<g id="edge10" class="edge"><title>etaC&#45;&gt;eta</title>
<path fill="none" stroke="black" d="M592.789,-443.404C580.373,-433.562 566.044,-422.236 553,-412 548.901,-408.783 544.62,-405.435 540.341,-402.096"/>
<polygon fill="black" stroke="black" points="542.201,-399.108 532.162,-395.721 537.898,-404.629 542.201,-399.108"/>
</g>
<!-- etaT -->
<g id="node15" class="node"><title>etaT</title>
<polygon fill="none" stroke="black" points="544.25,-496.5 453.75,-496.5 453.75,-443.5 544.25,-443.5 544.25,-496.5"/>
<text text-anchor="middle" x="499" y="-481.3" font-family="Times,serif" font-size="14.00">etaT</text>
<text text-anchor="middle" x="499" y="-466.3" font-family="Times,serif" font-size="14.00">~</text>
<text text-anchor="middle" x="499" y="-451.3" font-family="Times,serif" font-size="14.00">Deterministic</text>
</g>
<!-- etaT&#45;&gt;eta -->
<g id="edge11" class="edge"><title>etaT&#45;&gt;eta</title>
<path fill="none" stroke="black" d="M499,-443.247C499,-431.789 499,-418.106 499,-405.684"/>
<polygon fill="black" stroke="black" points="502.5,-405.624 499,-395.624 495.5,-405.624 502.5,-405.624"/>
</g>
<!-- gamma_etaT -->
<g id="node16" class="node"><title>gamma_etaT</title>
<ellipse fill="none" stroke="black" cx="499" cy="-593" rx="62.3993" ry="37.4533"/>
<text text-anchor="middle" x="499" y="-604.3" font-family="Times,serif" font-size="14.00">gamma_etaT</text>
<text text-anchor="middle" x="499" y="-589.3" font-family="Times,serif" font-size="14.00">~</text>
<text text-anchor="middle" x="499" y="-574.3" font-family="Times,serif" font-size="14.00">Gamma</text>
</g>
<!-- gamma_etaT&#45;&gt;etaT -->
<g id="edge9" class="edge"><title>gamma_etaT&#45;&gt;etaT</title>
<path fill="none" stroke="black" d="M499,-555.368C499,-539.995 499,-522.175 499,-506.884"/>
<polygon fill="black" stroke="black" points="502.5,-506.763 499,-496.763 495.5,-506.763 502.5,-506.763"/>
</g>
<!-- eta&#45;&gt;B -->
<g id="edge12" class="edge"><title>eta&#45;&gt;B</title>
<path fill="none" stroke="black" d="M469.927,-342.214C456.633,-331.427 440.247,-319.459 424,-311 400.261,-298.64 372.204,-289.053 348.157,-282.179"/>
<polygon fill="black" stroke="black" points="349.04,-278.792 338.468,-279.493 347.17,-285.538 349.04,-278.792"/>
</g>
</g>
</svg>
