<?xml version="1.0" encoding="UTF-8" standalone="no"?>
<!DOCTYPE svg PUBLIC "-//W3C//DTD SVG 1.1//EN"
 "http://www.w3.org/Graphics/SVG/1.1/DTD/svg11.dtd">
<!-- Generated by graphviz version 2.42.3 (20191010.1750)
 -->
<!-- Title: %3 Pages: 1 -->
<svg width="730pt" height="771pt"
 viewBox="0.00 0.00 730.00 770.84" xmlns="http://www.w3.org/2000/svg" xmlns:xlink="http://www.w3.org/1999/xlink">
<g id="graph0" class="graph" transform="scale(1 1) rotate(0) translate(4 766.84)">
<title>%3</title>
<polygon fill="white" stroke="transparent" points="-4,4 -4,-766.84 726,-766.84 726,4 -4,4"/>
<g id="clust1" class="cluster">
<title>cluster2,778 x 96</title>
<path fill="none" stroke="black" d="M240,-8C240,-8 354,-8 354,-8 360,-8 366,-14 366,-20 366,-20 366,-287.95 366,-287.95 366,-293.95 360,-299.95 354,-299.95 354,-299.95 240,-299.95 240,-299.95 234,-299.95 228,-293.95 228,-287.95 228,-287.95 228,-20 228,-20 228,-14 234,-8 240,-8"/>
<text text-anchor="middle" x="328.5" y="-15.8" font-family="Times,serif" font-size="14.00">2,778 x 96</text>
</g>
<g id="clust2" class="cluster">
<title>cluster20 x 32</title>
<path fill="none" stroke="black" d="M20,-307.95C20,-307.95 128,-307.95 128,-307.95 134,-307.95 140,-313.95 140,-319.95 140,-319.95 140,-498.93 140,-498.93 140,-504.93 134,-510.93 128,-510.93 128,-510.93 20,-510.93 20,-510.93 14,-510.93 8,-504.93 8,-498.93 8,-498.93 8,-319.95 8,-319.95 8,-313.95 14,-307.95 20,-307.95"/>
<text text-anchor="middle" x="111" y="-315.75" font-family="Times,serif" font-size="14.00">20 x 32</text>
</g>
<g id="clust3" class="cluster">
<title>cluster2,778 x 20</title>
<path fill="none" stroke="black" d="M160,-307.95C160,-307.95 280,-307.95 280,-307.95 286,-307.95 292,-313.95 292,-319.95 292,-319.95 292,-498.93 292,-498.93 292,-504.93 286,-510.93 280,-510.93 280,-510.93 160,-510.93 160,-510.93 154,-510.93 148,-504.93 148,-498.93 148,-498.93 148,-319.95 148,-319.95 148,-313.95 154,-307.95 160,-307.95"/>
<text text-anchor="middle" x="254.5" y="-315.75" font-family="Times,serif" font-size="14.00">2,778 x 20</text>
</g>
<g id="clust4" class="cluster">
<title>cluster37 x 18</title>
<path fill="none" stroke="black" d="M269,-640.88C269,-640.88 451,-640.88 451,-640.88 457,-640.88 463,-646.88 463,-652.88 463,-652.88 463,-742.84 463,-742.84 463,-748.84 457,-754.84 451,-754.84 451,-754.84 269,-754.84 269,-754.84 263,-754.84 257,-748.84 257,-742.84 257,-742.84 257,-652.88 257,-652.88 257,-646.88 263,-640.88 269,-640.88"/>
<text text-anchor="middle" x="434" y="-648.68" font-family="Times,serif" font-size="14.00">37 x 18</text>
</g>
<g id="clust5" class="cluster">
<title>cluster2,778 x 18</title>
<path fill="none" stroke="black" d="M321,-518.93C321,-518.93 399,-518.93 399,-518.93 405,-518.93 411,-524.93 411,-530.93 411,-530.93 411,-620.88 411,-620.88 411,-626.88 405,-632.88 399,-632.88 399,-632.88 321,-632.88 321,-632.88 315,-632.88 309,-626.88 309,-620.88 309,-620.88 309,-530.93 309,-530.93 309,-524.93 315,-518.93 321,-518.93"/>
<text text-anchor="middle" x="373.5" y="-526.73" font-family="Times,serif" font-size="14.00">2,778 x 18</text>
</g>
<g id="clust6" class="cluster">
<title>cluster20 x 2,778 x 18</title>
<path fill="none" stroke="black" d="M312,-307.95C312,-307.95 408,-307.95 408,-307.95 414,-307.95 420,-313.95 420,-319.95 420,-319.95 420,-498.93 420,-498.93 420,-504.93 414,-510.93 408,-510.93 408,-510.93 312,-510.93 312,-510.93 306,-510.93 300,-504.93 300,-498.93 300,-498.93 300,-319.95 300,-319.95 300,-313.95 306,-307.95 312,-307.95"/>
<text text-anchor="middle" x="368.5" y="-315.75" font-family="Times,serif" font-size="14.00">20 x 2,778 x 18</text>
</g>
<g id="clust7" class="cluster">
<title>cluster18 x 3</title>
<path fill="none" stroke="black" d="M440,-407.95C440,-407.95 702,-407.95 702,-407.95 708,-407.95 714,-413.95 714,-419.95 714,-419.95 714,-620.88 714,-620.88 714,-626.88 708,-632.88 702,-632.88 702,-632.88 440,-632.88 440,-632.88 434,-632.88 428,-626.88 428,-620.88 428,-620.88 428,-419.95 428,-419.95 428,-413.95 434,-407.95 440,-407.95"/>
<text text-anchor="middle" x="688.5" y="-415.75" font-family="Times,serif" font-size="14.00">18 x 3</text>
</g>
<g id="clust8" class="cluster">
<title>cluster18 x 2 x 3</title>
<path fill="none" stroke="black" d="M457,-307.95C457,-307.95 541,-307.95 541,-307.95 547,-307.95 553,-313.95 553,-319.95 553,-319.95 553,-387.95 553,-387.95 553,-393.95 547,-399.95 541,-399.95 541,-399.95 457,-399.95 457,-399.95 451,-399.95 445,-393.95 445,-387.95 445,-387.95 445,-319.95 445,-319.95 445,-313.95 451,-307.95 457,-307.95"/>
<text text-anchor="middle" x="517" y="-315.75" font-family="Times,serif" font-size="14.00">18 x 2 x 3</text>
</g>
<!-- corpus -->
<g id="node1" class="node">
<title>corpus</title>
<ellipse fill="lightgrey" stroke="black" cx="297" cy="-165.48" rx="60.62" ry="37.45"/>
<text text-anchor="middle" x="297" y="-176.78" font-family="Times,serif" font-size="14.00">corpus</text>
<text text-anchor="middle" x="297" y="-161.78" font-family="Times,serif" font-size="14.00">~</text>
<text text-anchor="middle" x="297" y="-146.78" font-family="Times,serif" font-size="14.00">Multinomial</text>
</g>
<!-- data -->
<g id="node3" class="node">
<title>data</title>
<path fill="lightgrey" stroke="black" d="M312,-92C312,-92 282,-92 282,-92 276,-92 270,-86 270,-80 270,-80 270,-51 270,-51 270,-45 276,-39 282,-39 282,-39 312,-39 312,-39 318,-39 324,-45 324,-51 324,-51 324,-80 324,-80 324,-86 318,-92 312,-92"/>
<text text-anchor="middle" x="297" y="-76.8" font-family="Times,serif" font-size="14.00">data</text>
<text text-anchor="middle" x="297" y="-61.8" font-family="Times,serif" font-size="14.00">~</text>
<text text-anchor="middle" x="297" y="-46.8" font-family="Times,serif" font-size="14.00">Data</text>
</g>
<!-- corpus&#45;&gt;data -->
<g id="edge1" class="edge">
<title>corpus&#45;&gt;data</title>
<path fill="none" stroke="black" d="M297,-127.99C297,-119.58 297,-110.63 297,-102.25"/>
<polygon fill="black" stroke="black" points="300.5,-102.01 297,-92.01 293.5,-102.01 300.5,-102.01"/>
</g>
<!-- B -->
<g id="node2" class="node">
<title>B</title>
<polygon fill="none" stroke="black" points="342.5,-291.95 251.5,-291.95 251.5,-238.95 342.5,-238.95 342.5,-291.95"/>
<text text-anchor="middle" x="297" y="-276.75" font-family="Times,serif" font-size="14.00">B</text>
<text text-anchor="middle" x="297" y="-261.75" font-family="Times,serif" font-size="14.00">~</text>
<text text-anchor="middle" x="297" y="-246.75" font-family="Times,serif" font-size="14.00">Deterministic</text>
</g>
<!-- B&#45;&gt;corpus -->
<g id="edge16" class="edge">
<title>B&#45;&gt;corpus</title>
<path fill="none" stroke="black" d="M297,-238.71C297,-230.89 297,-222.03 297,-213.27"/>
<polygon fill="black" stroke="black" points="300.5,-213.1 297,-203.1 293.5,-213.1 300.5,-213.1"/>
</g>
<!-- phi -->
<g id="node4" class="node">
<title>phi</title>
<polygon fill="none" stroke="black" points="125.5,-391.95 34.5,-391.95 34.5,-338.95 125.5,-338.95 125.5,-391.95"/>
<text text-anchor="middle" x="80" y="-376.75" font-family="Times,serif" font-size="14.00">phi</text>
<text text-anchor="middle" x="80" y="-361.75" font-family="Times,serif" font-size="14.00">~</text>
<text text-anchor="middle" x="80" y="-346.75" font-family="Times,serif" font-size="14.00">Deterministic</text>
</g>
<!-- phi&#45;&gt;B -->
<g id="edge15" class="edge">
<title>phi&#45;&gt;B</title>
<path fill="none" stroke="black" d="M103.8,-338.69C115.06,-327.83 129.25,-315.9 144,-307.95 174.26,-291.65 211.41,-281.38 241.52,-275.13"/>
<polygon fill="black" stroke="black" points="242.31,-278.55 251.44,-273.17 240.95,-271.68 242.31,-278.55"/>
</g>
<!-- gamma_phi -->
<g id="node5" class="node">
<title>gamma_phi</title>
<ellipse fill="none" stroke="black" cx="74" cy="-465.45" rx="57.97" ry="37.45"/>
<text text-anchor="middle" x="74" y="-476.75" font-family="Times,serif" font-size="14.00">gamma_phi</text>
<text text-anchor="middle" x="74" y="-461.75" font-family="Times,serif" font-size="14.00">~</text>
<text text-anchor="middle" x="74" y="-446.75" font-family="Times,serif" font-size="14.00">Gamma</text>
</g>
<!-- gamma_phi&#45;&gt;phi -->
<g id="edge2" class="edge">
<title>gamma_phi&#45;&gt;phi</title>
<path fill="none" stroke="black" d="M76.23,-427.96C76.75,-419.54 77.3,-410.6 77.81,-402.21"/>
<polygon fill="black" stroke="black" points="81.32,-402.17 78.44,-391.97 74.33,-401.74 81.32,-402.17"/>
</g>
<!-- theta -->
<g id="node6" class="node">
<title>theta</title>
<polygon fill="none" stroke="black" points="274.5,-391.95 183.5,-391.95 183.5,-338.95 274.5,-338.95 274.5,-391.95"/>
<text text-anchor="middle" x="229" y="-376.75" font-family="Times,serif" font-size="14.00">theta</text>
<text text-anchor="middle" x="229" y="-361.75" font-family="Times,serif" font-size="14.00">~</text>
<text text-anchor="middle" x="229" y="-346.75" font-family="Times,serif" font-size="14.00">Deterministic</text>
</g>
<!-- theta&#45;&gt;B -->
<g id="edge12" class="edge">
<title>theta&#45;&gt;B</title>
<path fill="none" stroke="black" d="M246.87,-338.7C254.99,-327 264.71,-312.99 273.42,-300.44"/>
<polygon fill="black" stroke="black" points="276.43,-302.24 279.25,-292.03 270.68,-298.25 276.43,-302.24"/>
</g>
<!-- gamma_theta -->
<g id="node7" class="node">
<title>gamma_theta</title>
<ellipse fill="none" stroke="black" cx="220" cy="-465.45" rx="64.19" ry="37.45"/>
<text text-anchor="middle" x="220" y="-476.75" font-family="Times,serif" font-size="14.00">gamma_theta</text>
<text text-anchor="middle" x="220" y="-461.75" font-family="Times,serif" font-size="14.00">~</text>
<text text-anchor="middle" x="220" y="-446.75" font-family="Times,serif" font-size="14.00">Gamma</text>
</g>
<!-- gamma_theta&#45;&gt;theta -->
<g id="edge3" class="edge">
<title>gamma_theta&#45;&gt;theta</title>
<path fill="none" stroke="black" d="M223.35,-427.96C224.13,-419.45 224.96,-410.4 225.74,-401.93"/>
<polygon fill="black" stroke="black" points="229.23,-402.25 226.66,-391.97 222.26,-401.61 229.23,-402.25"/>
</g>
<!-- a_t -->
<g id="node8" class="node">
<title>a_t</title>
<ellipse fill="none" stroke="black" cx="412" cy="-709.36" rx="43.27" ry="37.45"/>
<text text-anchor="middle" x="412" y="-720.66" font-family="Times,serif" font-size="14.00">a_t</text>
<text text-anchor="middle" x="412" y="-705.66" font-family="Times,serif" font-size="14.00">~</text>
<text text-anchor="middle" x="412" y="-690.66" font-family="Times,serif" font-size="14.00">Gamma</text>
</g>
<!-- gamma -->
<g id="node10" class="node">
<title>gamma</title>
<ellipse fill="none" stroke="black" cx="360" cy="-587.41" rx="43.27" ry="37.45"/>
<text text-anchor="middle" x="360" y="-598.71" font-family="Times,serif" font-size="14.00">gamma</text>
<text text-anchor="middle" x="360" y="-583.71" font-family="Times,serif" font-size="14.00">~</text>
<text text-anchor="middle" x="360" y="-568.71" font-family="Times,serif" font-size="14.00">Gamma</text>
</g>
<!-- a_t&#45;&gt;gamma -->
<g id="edge4" class="edge">
<title>a_t&#45;&gt;gamma</title>
<path fill="none" stroke="black" d="M397.1,-673.99C391.44,-660.94 384.92,-645.9 378.94,-632.1"/>
<polygon fill="black" stroke="black" points="382.09,-630.57 374.9,-622.79 375.67,-633.35 382.09,-630.57"/>
</g>
<!-- b_t -->
<g id="node9" class="node">
<title>b_t</title>
<ellipse fill="none" stroke="black" cx="308" cy="-709.36" rx="43.27" ry="37.45"/>
<text text-anchor="middle" x="308" y="-720.66" font-family="Times,serif" font-size="14.00">b_t</text>
<text text-anchor="middle" x="308" y="-705.66" font-family="Times,serif" font-size="14.00">~</text>
<text text-anchor="middle" x="308" y="-690.66" font-family="Times,serif" font-size="14.00">Gamma</text>
</g>
<!-- b_t&#45;&gt;gamma -->
<g id="edge5" class="edge">
<title>b_t&#45;&gt;gamma</title>
<path fill="none" stroke="black" d="M322.9,-673.99C328.56,-660.94 335.08,-645.9 341.06,-632.1"/>
<polygon fill="black" stroke="black" points="344.33,-633.35 345.1,-622.79 337.91,-630.57 344.33,-633.35"/>
</g>
<!-- gamma_A -->
<g id="node11" class="node">
<title>gamma_A</title>
<ellipse fill="none" stroke="black" cx="360" cy="-465.45" rx="52.15" ry="37.45"/>
<text text-anchor="middle" x="360" y="-476.75" font-family="Times,serif" font-size="14.00">gamma_A</text>
<text text-anchor="middle" x="360" y="-461.75" font-family="Times,serif" font-size="14.00">~</text>
<text text-anchor="middle" x="360" y="-446.75" font-family="Times,serif" font-size="14.00">Gamma</text>
</g>
<!-- gamma&#45;&gt;gamma_A -->
<g id="edge6" class="edge">
<title>gamma&#45;&gt;gamma_A</title>
<path fill="none" stroke="black" d="M360,-549.76C360,-538.36 360,-525.62 360,-513.61"/>
<polygon fill="black" stroke="black" points="363.5,-513.28 360,-503.28 356.5,-513.28 363.5,-513.28"/>
</g>
<!-- A -->
<g id="node12" class="node">
<title>A</title>
<polygon fill="none" stroke="black" points="402.5,-391.95 311.5,-391.95 311.5,-338.95 402.5,-338.95 402.5,-391.95"/>
<text text-anchor="middle" x="357" y="-376.75" font-family="Times,serif" font-size="14.00">A</text>
<text text-anchor="middle" x="357" y="-361.75" font-family="Times,serif" font-size="14.00">~</text>
<text text-anchor="middle" x="357" y="-346.75" font-family="Times,serif" font-size="14.00">Deterministic</text>
</g>
<!-- gamma_A&#45;&gt;A -->
<g id="edge7" class="edge">
<title>gamma_A&#45;&gt;A</title>
<path fill="none" stroke="black" d="M358.88,-427.96C358.63,-419.54 358.35,-410.6 358.09,-402.21"/>
<polygon fill="black" stroke="black" points="361.59,-401.86 357.78,-391.97 354.59,-402.07 361.59,-401.86"/>
</g>
<!-- A&#45;&gt;B -->
<g id="edge13" class="edge">
<title>A&#45;&gt;B</title>
<path fill="none" stroke="black" d="M341.24,-338.7C334.14,-327.11 325.66,-313.26 318.03,-300.8"/>
<polygon fill="black" stroke="black" points="320.87,-298.73 312.66,-292.03 314.9,-302.39 320.87,-298.73"/>
</g>
<!-- gamma_etaC -->
<g id="node13" class="node">
<title>gamma_etaC</title>
<ellipse fill="none" stroke="black" cx="643" cy="-587.41" rx="62.87" ry="37.45"/>
<text text-anchor="middle" x="643" y="-598.71" font-family="Times,serif" font-size="14.00">gamma_etaC</text>
<text text-anchor="middle" x="643" y="-583.71" font-family="Times,serif" font-size="14.00">~</text>
<text text-anchor="middle" x="643" y="-568.71" font-family="Times,serif" font-size="14.00">Gamma</text>
</g>
<!-- etaC -->
<g id="node14" class="node">
<title>etaC</title>
<polygon fill="none" stroke="black" points="670.5,-491.95 579.5,-491.95 579.5,-438.95 670.5,-438.95 670.5,-491.95"/>
<text text-anchor="middle" x="625" y="-476.75" font-family="Times,serif" font-size="14.00">etaC</text>
<text text-anchor="middle" x="625" y="-461.75" font-family="Times,serif" font-size="14.00">~</text>
<text text-anchor="middle" x="625" y="-446.75" font-family="Times,serif" font-size="14.00">Deterministic</text>
</g>
<!-- gamma_etaC&#45;&gt;etaC -->
<g id="edge8" class="edge">
<title>gamma_etaC&#45;&gt;etaC</title>
<path fill="none" stroke="black" d="M637.5,-549.76C635.23,-534.65 632.61,-517.19 630.36,-502.18"/>
<polygon fill="black" stroke="black" points="633.81,-501.6 628.87,-492.23 626.89,-502.64 633.81,-501.6"/>
</g>
<!-- eta -->
<g id="node17" class="node">
<title>eta</title>
<polygon fill="none" stroke="black" points="544.5,-391.95 453.5,-391.95 453.5,-338.95 544.5,-338.95 544.5,-391.95"/>
<text text-anchor="middle" x="499" y="-376.75" font-family="Times,serif" font-size="14.00">eta</text>
<text text-anchor="middle" x="499" y="-361.75" font-family="Times,serif" font-size="14.00">~</text>
<text text-anchor="middle" x="499" y="-346.75" font-family="Times,serif" font-size="14.00">Deterministic</text>
</g>
<!-- etaC&#45;&gt;eta -->
<g id="edge10" class="edge">
<title>etaC&#45;&gt;eta</title>
<path fill="none" stroke="black" d="M592.98,-438.68C580.82,-428.98 566.83,-417.89 554,-407.95 549.91,-404.78 545.63,-401.5 541.34,-398.23"/>
<polygon fill="black" stroke="black" points="543.22,-395.26 533.14,-392 538.98,-400.83 543.22,-395.26"/>
</g>
<!-- etaT -->
<g id="node15" class="node">
<title>etaT</title>
<polygon fill="none" stroke="black" points="544.5,-491.95 453.5,-491.95 453.5,-438.95 544.5,-438.95 544.5,-491.95"/>
<text text-anchor="middle" x="499" y="-476.75" font-family="Times,serif" font-size="14.00">etaT</text>
<text text-anchor="middle" x="499" y="-461.75" font-family="Times,serif" font-size="14.00">~</text>
<text text-anchor="middle" x="499" y="-446.75" font-family="Times,serif" font-size="14.00">Deterministic</text>
</g>
<!-- etaT&#45;&gt;eta -->
<g id="edge11" class="edge">
<title>etaT&#45;&gt;eta</title>
<path fill="none" stroke="black" d="M499,-438.7C499,-427.56 499,-414.34 499,-402.26"/>
<polygon fill="black" stroke="black" points="502.5,-402.03 499,-392.03 495.5,-402.03 502.5,-402.03"/>
</g>
<!-- gamma_etaT -->
<g id="node16" class="node">
<title>gamma_etaT</title>
<ellipse fill="none" stroke="black" cx="499" cy="-587.41" rx="62.87" ry="37.45"/>
<text text-anchor="middle" x="499" y="-598.71" font-family="Times,serif" font-size="14.00">gamma_etaT</text>
<text text-anchor="middle" x="499" y="-583.71" font-family="Times,serif" font-size="14.00">~</text>
<text text-anchor="middle" x="499" y="-568.71" font-family="Times,serif" font-size="14.00">Gamma</text>
</g>
<!-- gamma_etaT&#45;&gt;etaT -->
<g id="edge9" class="edge">
<title>gamma_etaT&#45;&gt;etaT</title>
<path fill="none" stroke="black" d="M499,-549.76C499,-534.8 499,-517.53 499,-502.61"/>
<polygon fill="black" stroke="black" points="502.5,-502.23 499,-492.23 495.5,-502.23 502.5,-502.23"/>
</g>
<!-- eta&#45;&gt;B -->
<g id="edge14" class="edge">
<title>eta&#45;&gt;B</title>
<path fill="none" stroke="black" d="M469.87,-338.95C456.57,-328.27 440.19,-316.4 424,-307.95 401.61,-296.27 375.29,-287.02 352.43,-280.25"/>
<polygon fill="black" stroke="black" points="353.11,-276.8 342.54,-277.4 351.18,-283.53 353.11,-276.8"/>
</g>
</g>
</svg>
